<svg width="25" height="24" viewBox="0 0 25 24" fill="none" xmlns="http://www.w3.org/2000/svg">
<path fill-rule="evenodd" clip-rule="evenodd" d="M16.182 3.31802C17.9393 5.07538 17.9393 7.92462 16.182 9.68198C14.4246 11.4393 11.5754 11.4393 9.81802 9.68198C8.06066 7.92462 8.06066 5.07538 9.81802 3.31802C11.5754 1.56066 14.4246 1.56066 16.182 3.31802Z" fill="#288C5A"/>
<path d="M16.182 3.31802C17.9393 5.07538 17.9393 7.92462 16.182 9.68198C14.4246 11.4393 11.5754 11.4393 9.81802 9.68198C8.06066 7.92462 8.06066 5.07538 9.81802 3.31802C11.5754 1.56066 14.4246 1.56066 16.182 3.31802" stroke="#288C5A" stroke-width="1.5" stroke-linecap="round" stroke-linejoin="round"/>
<path fill-rule="evenodd" clip-rule="evenodd" d="M12.5 14.5C20.0009 14.5 21.9449 17.9997 22.3844 19.1656C22.4766 19.4102 22.5 19.6701 22.5 19.9315V20.7692C22.5 21.4489 21.9489 22 21.2692 22H3.7308C3.05105 22 2.5 21.4489 2.5 20.7692V19.9315C2.5 19.6701 2.52336 19.4102 2.61558 19.1656C3.05509 17.9997 4.9991 14.5 12.5 14.5Z" fill="#288C5A" stroke="#288C5A" stroke-width="1.5" stroke-linecap="round" stroke-linejoin="round"/>
</svg>
